<?xml version="1.0" encoding="UTF-8"?>
<svg width="512" height="128" viewBox="0 0 512 128" xmlns="http://www.w3.org/2000/svg">
  <!-- Background Panel -->
  <rect x="0" y="20" width="512" height="88" rx="8" fill="#3B3B2F" stroke="#5A5A4D" stroke-width="4"/>
  
  <!-- Title Text -->
  <text x="256" y="55" text-anchor="middle" font-family="Arial Black, sans-serif" font-size="28" font-weight="bold" fill="#F4E6D7">
    VINTAGE TACTICAL RADIO
  </text>
  
  <!-- Subtitle -->
  <text x="256" y="80" text-anchor="middle" font-family="Arial, sans-serif" font-size="14" fill="#FF6B00">
    RTL-SDR SOFTWARE DEFINED RADIO
  </text>
  
  <!-- Military Stars -->
  <path d="M 30 64 L 33 72 L 41 72 L 35 77 L 37 85 L 30 80 L 23 85 L 25 77 L 19 72 L 27 72 Z" fill="#F4E6D7"/>
  <path d="M 482 64 L 485 72 L 493 72 L 487 77 L 489 85 L 482 80 L 475 85 L 477 77 L 471 72 L 479 72 Z" fill="#F4E6D7"/>
  
  <!-- Frequency Indicators -->
  <rect x="50" y="95" width="60" height="4" rx="2" fill="#4A4A3D"/>
  <rect x="120" y="95" width="60" height="4" rx="2" fill="#4A4A3D"/>
  <rect x="332" y="95" width="60" height="4" rx="2" fill="#4A4A3D"/>
  <rect x="402" y="95" width="60" height="4" rx="2" fill="#4A4A3D"/>
</svg>
